<svg width="24" height="24" viewBox="0 0 24 24" fill="none" xmlns="http://www.w3.org/2000/svg">
<path d="M20 11C20.5523 11 21 11.4477 21 12C21 12.5523 20.5523 13 20 13H4C3.44772 13 3 12.5523 3 12C3 11.4477 3.44772 11 4 11H20ZM12.2929 19.2929C12.6834 19.6834 12.6834 20.3166 12.2929 20.7071C11.9024 21.0976 11.2692 21.0976 10.8787 20.7071L3.58579 13.4142C2.80474 12.6332 2.80474 11.3668 3.58579 10.5858L10.8787 3.29289C11.2692 2.90237 11.9024 2.90237 12.2929 3.29289C12.6834 3.68342 12.6834 4.31658 12.2929 4.70711L5 12L12.2929 19.2929Z" fill="white"/>
</svg>
